<?xml version="1.0" standalone="no"?><!DOCTYPE svg PUBLIC "-//W3C//DTD SVG 1.1//EN" "http://www.w3.org/Graphics/SVG/1.1/DTD/svg11.dtd"><svg t="1713017133388" class="icon" viewBox="0 0 1024 1024" version="1.1" xmlns="http://www.w3.org/2000/svg" p-id="1612" xmlns:xlink="http://www.w3.org/1999/xlink" width="200" height="200"><path d="M597.333333 256v682.666667h-85.333333V256h85.333333z" p-id="1613"></path><path d="M512 512a128 128 0 0 0-128-128V298.666667a213.333333 213.333333 0 0 1 213.333333 213.333333h-85.333333z" p-id="1614"></path><path d="M614.997333 529.664A85.333333 85.333333 0 0 0 640 469.333333h85.333333a170.666667 170.666667 0 1 1-341.333333 0h85.333333a85.333333 85.333333 0 0 0 145.664 60.330667z" p-id="1615"></path><path d="M672.512 199.424A256 256 0 0 0 298.666667 426.666667a42.666667 42.666667 0 0 1-4.522667 19.072L239.701333 554.666667H256a42.666667 42.666667 0 0 1 42.666667 42.666666v85.333334h85.333333a42.666667 42.666667 0 0 1 42.666667 42.666666v213.333334H341.333333v-170.666667H256a42.666667 42.666667 0 0 1-42.666667-42.666667v-85.333333H170.666667a42.666667 42.666667 0 0 1-38.144-61.738667l80.981333-161.962666a341.333333 341.333333 0 1 1 610.688 219.776c-32.853333 42.282667-54.826667 82.688-54.826667 123.221333V938.666667h-85.333333v-179.370667c0-70.4 37.546667-130.176 72.789333-175.573333a256.128 256.128 0 0 0 11.946667-297.386667 256 256 0 0 0-96.256-86.912z" p-id="1616"></path><path d="M725.333333 384v85.333333h-85.333333V384h85.333333z" p-id="1617"></path></svg>